<?xml version="1.0" encoding="utf-8"?>
<!-- Generator: Adobe Illustrator 15.1.0, SVG Export Plug-In . SVG Version: 6.00 Build 0)  -->
<!DOCTYPE svg PUBLIC "-//W3C//DTD SVG 1.1//EN" "http://www.w3.org/Graphics/SVG/1.1/DTD/svg11.dtd">
<svg version="1.1" id="Layer_2" xmlns="http://www.w3.org/2000/svg" xmlns:xlink="http://www.w3.org/1999/xlink" x="0px" y="0px"
	 width="1000px" height="1000px" viewBox="0 0 1000 1000" enable-background="new 0 0 1000 1000" xml:space="preserve">
<linearGradient id="SVGID_1_" gradientUnits="userSpaceOnUse" x1="778.1748" y1="331.5552" x2="778.1748" y2="451.576">
	<stop  offset="0" style="stop-color:#E27817"/>
	<stop  offset="0.3906" style="stop-color:#E47519"/>
	<stop  offset="0.7116" style="stop-color:#E96B1F"/>
	<stop  offset="1" style="stop-color:#F15A29"/>
</linearGradient>
<polygon fill="url(#SVGID_1_)" points="771.39,335.307 733.465,420.132 822.885,420.132 822.885,335.307 "/>
<linearGradient id="SVGID_2_" gradientUnits="userSpaceOnUse" x1="572.7031" y1="331.5552" x2="572.7031" y2="451.576">
	<stop  offset="0" style="stop-color:#E27817"/>
	<stop  offset="0.3906" style="stop-color:#E47519"/>
	<stop  offset="0.7116" style="stop-color:#E96B1F"/>
	<stop  offset="1" style="stop-color:#F15A29"/>
</linearGradient>
<polygon fill="url(#SVGID_2_)" points="466.615,420.132 505.695,420.132 640.559,420.132 678.791,335.307 466.615,335.307 "/>
<g>
	<polygon fill="#019733" points="787.979,335.412 771.486,335.412 781.004,314.141 	"/>
	<polygon fill="#019733" points="839.567,492.663 767.137,420.238 815.803,420.238 	"/>
</g>
<g>
	<polygon fill="#019733" points="688.037,314.141 679.698,332.801 679.669,332.801 678.514,335.412 640.559,420.238 
		569.354,579.411 522.871,683.318 615.801,683.318 615.801,683.293 733.515,420.238 743.9,397.033 771.452,335.412 780.97,314.141 	
		"/>
</g>
<g>
	<polygon fill="#019733" points="569.354,579.411 507.769,420.238 466.615,420.238 466.615,535.106 522.871,683.293 
		522.871,683.318 	"/>
</g>
<path fill="#019733" d="M381.733,314.146v291.426h-84.479h-32.908v-23.229c10.618-12.334,19.668-28.955,19.668-47.262
	c0-8.294-1.329-16.254-3.771-23.614h0.032l-12.456-35.411c-0.695-3.38-1.844-6.577-3.352-9.562V466.4l-17.13-33.775
	c-3.499-8.18-11.582-14.272-21.388-15.625c0.817-14.48,8.267-25.851,17.286-25.851l-9.141-2.926l9.141-8.838
	c-14.599,0-26.513,16.831-27.357,37.947c-9.08,1.776-16.529,7.569-19.787,15.321l-16.678,32.844
	c-0.15,0.305-0.302,0.575-0.452,0.875v0.028c-1.54,3.079-2.716,6.335-3.409,9.744l-12.334,35.201
	c-0.033,0.057-0.033,0.089-0.061,0.122c-2.414,7.36-3.772,15.32-3.772,23.614c0,18.307,9.471,34.928,20.119,47.262v103.791h84.838
	h32.913H466.58V314.146H381.733z M192.895,484.74c-1.96,5.882-7.117,9.475-11.522,7.996c-4.401-1.48-6.393-7.421-4.433-13.304
	c1.962-5.877,7.12-9.471,11.521-7.993C192.866,472.916,194.857,478.862,192.895,484.74z M261.693,492.736
	c-4.401,1.479-9.529-2.114-11.521-7.996c-1.96-5.877,0.032-11.824,4.433-13.301c4.405-1.478,9.565,2.116,11.525,7.993
	C268.089,485.314,266.098,491.255,261.693,492.736z"/>
<linearGradient id="SVGID_3_" gradientUnits="userSpaceOnUse" x1="333.0073" y1="331.5552" x2="333.0073" y2="451.576">
	<stop  offset="0" style="stop-color:#E27817"/>
	<stop  offset="0.3906" style="stop-color:#E47519"/>
	<stop  offset="0.7116" style="stop-color:#E96B1F"/>
	<stop  offset="1" style="stop-color:#F15A29"/>
</linearGradient>
<polygon fill="url(#SVGID_3_)" points="381.548,335.307 284.282,335.307 284.282,420.132 366.074,420.132 381.548,420.132 
	381.733,420.132 381.733,335.412 381.548,335.412 "/>
<g opacity="0.5">
	<linearGradient id="SVGID_4_" gradientUnits="userSpaceOnUse" x1="651.9199" y1="720.3711" x2="651.9199" y2="465.3106">
		<stop  offset="0" style="stop-color:#019733"/>
		<stop  offset="0.1363" style="stop-color:#0B732D;stop-opacity:0.8637"/>
		<stop  offset="0.2826" style="stop-color:#145529;stop-opacity:0.7174"/>
		<stop  offset="0.4366" style="stop-color:#1A3D25;stop-opacity:0.5634"/>
		<stop  offset="0.5997" style="stop-color:#1F2C22;stop-opacity:0.4003"/>
		<stop  offset="0.778" style="stop-color:#222221;stop-opacity:0.222"/>
		<stop  offset="1" style="stop-color:#231F20;stop-opacity:0"/>
	</linearGradient>
	<polygon fill="url(#SVGID_4_)" points="688.037,314.141 679.698,332.801 679.669,332.801 678.514,335.412 640.559,420.238 
		569.354,579.411 522.871,683.318 615.801,683.318 615.801,683.293 733.515,420.238 743.9,397.033 771.452,335.412 780.97,314.141 	
		"/>
</g>
<linearGradient id="SVGID_5_" gradientUnits="userSpaceOnUse" x1="424.1567" y1="261.1621" x2="424.1567" y2="516.1943">
	<stop  offset="0" style="stop-color:#019733"/>
	<stop  offset="0.1363" style="stop-color:#0B732D;stop-opacity:0.8637"/>
	<stop  offset="0.2826" style="stop-color:#145529;stop-opacity:0.7174"/>
	<stop  offset="0.4366" style="stop-color:#1A3D25;stop-opacity:0.5634"/>
	<stop  offset="0.5997" style="stop-color:#1F2C22;stop-opacity:0.4003"/>
	<stop  offset="0.778" style="stop-color:#222221;stop-opacity:0.222"/>
	<stop  offset="1" style="stop-color:#231F20;stop-opacity:0"/>
</linearGradient>
<rect x="381.733" y="314.146" opacity="0.5" fill="url(#SVGID_5_)" width="84.847" height="371.988"/>
<g opacity="0.58">
	<linearGradient id="SVGID_6_" gradientUnits="userSpaceOnUse" x1="517.9844" y1="384.4351" x2="517.9844" y2="590.9712">
		<stop  offset="0" style="stop-color:#019733"/>
		<stop  offset="0.0409" style="stop-color:#038E32;stop-opacity:0.9591"/>
		<stop  offset="0.2465" style="stop-color:#0F662B;stop-opacity:0.7535"/>
		<stop  offset="0.4491" style="stop-color:#184726;stop-opacity:0.5509"/>
		<stop  offset="0.6453" style="stop-color:#1E3123;stop-opacity:0.3547"/>
		<stop  offset="0.8322" style="stop-color:#222421;stop-opacity:0.1678"/>
		<stop  offset="1" style="stop-color:#231F20;stop-opacity:0"/>
	</linearGradient>
	<polygon fill="url(#SVGID_6_)" points="569.354,579.411 507.769,420.238 466.615,420.238 466.615,535.106 522.871,683.293 
		522.871,683.318 	"/>
</g>
<linearGradient id="SVGID_7_" gradientUnits="userSpaceOnUse" x1="312.9824" y1="701.2676" x2="312.9824" y2="542.3115">
	<stop  offset="0" style="stop-color:#019733"/>
	<stop  offset="0.0409" style="stop-color:#038E32;stop-opacity:0.9591"/>
	<stop  offset="0.2465" style="stop-color:#0F662B;stop-opacity:0.7535"/>
	<stop  offset="0.4491" style="stop-color:#184726;stop-opacity:0.5509"/>
	<stop  offset="0.6453" style="stop-color:#1E3123;stop-opacity:0.3547"/>
	<stop  offset="0.8322" style="stop-color:#222421;stop-opacity:0.1678"/>
	<stop  offset="1" style="stop-color:#231F20;stop-opacity:0"/>
</linearGradient>
<path opacity="0.6" fill="url(#SVGID_7_)" d="M381.733,314.146v291.426h-84.479h-32.908v-23.229
	c10.618-12.334,19.668-28.955,19.668-47.262c0-8.294-1.329-16.254-3.771-23.614h0.032l-12.456-35.411
	c-0.695-3.38-1.844-6.577-3.352-9.562V466.4l-17.13-33.775c-3.499-8.18-11.582-14.272-21.388-15.625
	c0.817-14.48,8.267-25.851,17.286-25.851l-9.141-2.926l9.141-8.838c-14.599,0-26.513,16.831-27.357,37.947
	c-9.08,1.776-16.529,7.569-19.787,15.321l-16.678,32.844c-0.15,0.305-0.302,0.575-0.452,0.875v0.028
	c-1.54,3.079-2.716,6.335-3.409,9.744l-12.334,35.201c-0.033,0.057-0.033,0.089-0.061,0.122c-2.414,7.36-3.772,15.32-3.772,23.614
	c0,18.307,9.471,34.928,20.119,47.262v103.791h84.838h32.913H466.58V314.146H381.733z M192.895,484.74
	c-1.96,5.882-7.117,9.475-11.522,7.996c-4.401-1.48-6.393-7.421-4.433-13.304c1.962-5.877,7.12-9.471,11.521-7.993
	C192.866,472.916,194.857,478.862,192.895,484.74z M261.693,492.736c-4.401,1.479-9.529-2.114-11.521-7.996
	c-1.96-5.877,0.032-11.824,4.433-13.301c4.405-1.478,9.565,2.116,11.525,7.993C268.089,485.314,266.098,491.255,261.693,492.736z"/>
<g opacity="0.5">
	<linearGradient id="SVGID_8_" gradientUnits="userSpaceOnUse" x1="651.9199" y1="296.8467" x2="651.9199" y2="368.7368">
		<stop  offset="0" style="stop-color:#019733"/>
		<stop  offset="0.1363" style="stop-color:#0B732D;stop-opacity:0.8637"/>
		<stop  offset="0.2826" style="stop-color:#145529;stop-opacity:0.7174"/>
		<stop  offset="0.4366" style="stop-color:#1A3D25;stop-opacity:0.5634"/>
		<stop  offset="0.5997" style="stop-color:#1F2C22;stop-opacity:0.4003"/>
		<stop  offset="0.778" style="stop-color:#222221;stop-opacity:0.222"/>
		<stop  offset="1" style="stop-color:#231F20;stop-opacity:0"/>
	</linearGradient>
	<polygon fill="url(#SVGID_8_)" points="688.037,314.141 679.698,332.801 679.669,332.801 678.514,335.412 640.559,420.238 
		569.354,579.411 522.871,683.318 615.801,683.318 615.801,683.293 733.515,420.238 743.9,397.033 771.452,335.412 780.97,314.141 	
		"/>
</g>
<polygon fill="#019733" points="466.615,313.866 474.91,335.307 466.58,335.307 "/>
<polygon fill="#019733" points="466.615,313.866 474.91,335.307 466.58,335.307 "/>
<g>
	<polygon opacity="0.6" fill="#019733" points="839.567,492.663 767.137,420.238 815.803,420.238 	"/>
	<polygon fill="#019733" points="787.979,335.412 771.486,335.412 781.004,314.141 	"/>
</g>
</svg>
