<?xml version="1.0" encoding="utf-8"?>
<!-- Generator: Adobe Illustrator 15.1.0, SVG Export Plug-In . SVG Version: 6.00 Build 0)  -->
<!DOCTYPE svg PUBLIC "-//W3C//DTD SVG 1.1//EN" "http://www.w3.org/Graphics/SVG/1.1/DTD/svg11.dtd">
<svg version="1.1" id="Layer_2" xmlns="http://www.w3.org/2000/svg" xmlns:xlink="http://www.w3.org/1999/xlink" x="0px" y="0px"
	 width="718.561px" height="621.019px" viewBox="0 0 718.561 621.019" enable-background="new 0 0 718.561 621.019"
	 xml:space="preserve">
<g>
	<g>
		<linearGradient id="SVGID_1_" gradientUnits="userSpaceOnUse" x1="582.4541" y1="112.2559" x2="582.4541" y2="200.1536">
			<stop  offset="0" style="stop-color:#E27817"/>
			<stop  offset="0.3906" style="stop-color:#E47519"/>
			<stop  offset="0.7116" style="stop-color:#E96B1F"/>
			<stop  offset="1" style="stop-color:#F15A29"/>
		</linearGradient>
		<polygon fill="url(#SVGID_1_)" points="577.485,115.004 549.71,177.126 615.199,177.126 615.199,115.004 		"/>
		<linearGradient id="SVGID_2_" gradientUnits="userSpaceOnUse" x1="431.9707" y1="112.2559" x2="431.9707" y2="200.1536">
			<stop  offset="0" style="stop-color:#E27817"/>
			<stop  offset="0.3906" style="stop-color:#E47519"/>
			<stop  offset="0.7116" style="stop-color:#E96B1F"/>
			<stop  offset="1" style="stop-color:#F15A29"/>
		</linearGradient>
		<polygon fill="url(#SVGID_2_)" points="354.273,177.126 382.895,177.126 481.667,177.126 509.668,115.004 354.273,115.004 		"/>
		<g>
			<polygon fill="#019733" points="516.438,99.5 510.332,113.17 510.311,113.17 509.464,115.078 481.667,177.205 429.518,293.78 
				395.476,369.881 463.534,369.881 463.534,369.859 549.746,177.205 557.352,160.211 577.531,115.078 584.501,99.5 			"/>
		</g>
		<g>
			<polygon fill="#019733" points="429.518,293.78 384.414,177.205 354.273,177.205 354.273,261.334 395.476,369.859 
				395.476,369.881 			"/>
		</g>
		<path fill="#019733" d="M292.108,99.505v213.435h-61.871h-24.1v-17.012c7.773-9.033,14.402-21.205,14.402-34.615
			c0-6.073-0.972-11.905-2.76-17.295h0.021l-9.12-25.932c-0.509-2.477-1.352-4.819-2.455-7.004v-0.07l-12.546-24.736
			c-2.562-5.989-8.482-10.449-15.665-11.441c0.598-10.604,6.056-18.934,12.659-18.934l-6.694-2.143l6.694-6.475
			c-10.691,0-19.416,12.327-20.034,27.792c-6.65,1.301-12.106,5.544-14.493,11.222l-12.215,24.057
			c-0.108,0.22-0.222,0.42-0.33,0.638v0.021c-1.129,2.255-1.99,4.639-2.496,7.137l-9.033,25.781
			c-0.025,0.042-0.025,0.063-0.047,0.088c-1.767,5.39-2.762,11.222-2.762,17.295c0,13.41,6.938,25.582,14.734,34.615v76.012h62.135
			h24.104h124.01V99.505H292.108z M153.807,224.442c-1.437,4.311-5.213,6.94-8.439,5.856c-3.225-1.084-4.683-5.436-3.245-9.742
			c1.437-4.305,5.213-6.936,8.437-5.852C153.786,215.784,155.245,220.141,153.807,224.442z M204.192,230.299
			c-3.225,1.084-6.979-1.546-8.438-5.856c-1.435-4.302,0.024-8.658,3.247-9.737c3.226-1.084,7.007,1.547,8.44,5.852
			C208.876,224.863,207.42,229.215,204.192,230.299z"/>
		<linearGradient id="SVGID_3_" gradientUnits="userSpaceOnUse" x1="256.4229" y1="112.2559" x2="256.4229" y2="200.1536">
			<stop  offset="0" style="stop-color:#E27817"/>
			<stop  offset="0.3906" style="stop-color:#E47519"/>
			<stop  offset="0.7116" style="stop-color:#E96B1F"/>
			<stop  offset="1" style="stop-color:#F15A29"/>
		</linearGradient>
		<polygon fill="url(#SVGID_3_)" points="291.973,115.004 220.736,115.004 220.736,177.126 280.64,177.126 291.973,177.126 
			292.108,177.126 292.108,115.078 291.973,115.078 		"/>
		<g opacity="0.5">
			<linearGradient id="SVGID_4_" gradientUnits="userSpaceOnUse" x1="489.9883" y1="397.0176" x2="489.9883" y2="210.2144">
				<stop  offset="0" style="stop-color:#019733"/>
				<stop  offset="0.1363" style="stop-color:#0B732D;stop-opacity:0.8637"/>
				<stop  offset="0.2826" style="stop-color:#145529;stop-opacity:0.7174"/>
				<stop  offset="0.4366" style="stop-color:#1A3D25;stop-opacity:0.5634"/>
				<stop  offset="0.5997" style="stop-color:#1F2C22;stop-opacity:0.4003"/>
				<stop  offset="0.778" style="stop-color:#222221;stop-opacity:0.222"/>
				<stop  offset="1" style="stop-color:#231F20;stop-opacity:0"/>
			</linearGradient>
			<polygon fill="url(#SVGID_4_)" points="516.438,99.5 510.332,113.17 510.311,113.17 509.464,115.078 481.667,177.205 
				429.518,293.78 395.476,369.881 463.534,369.881 463.534,369.859 549.746,177.205 557.352,160.211 577.531,115.078 584.501,99.5 
							"/>
		</g>
		<linearGradient id="SVGID_5_" gradientUnits="userSpaceOnUse" x1="323.1777" y1="60.7012" x2="323.1777" y2="247.4801">
			<stop  offset="0" style="stop-color:#019733"/>
			<stop  offset="0.1363" style="stop-color:#0B732D;stop-opacity:0.8637"/>
			<stop  offset="0.2826" style="stop-color:#145529;stop-opacity:0.7174"/>
			<stop  offset="0.4366" style="stop-color:#1A3D25;stop-opacity:0.5634"/>
			<stop  offset="0.5997" style="stop-color:#1F2C22;stop-opacity:0.4003"/>
			<stop  offset="0.778" style="stop-color:#222221;stop-opacity:0.222"/>
			<stop  offset="1" style="stop-color:#231F20;stop-opacity:0"/>
		</linearGradient>
		<rect x="292.108" y="99.505" opacity="0.5" fill="url(#SVGID_5_)" width="62.139" height="272.435"/>
		<g opacity="0.58">
			<linearGradient id="SVGID_6_" gradientUnits="userSpaceOnUse" x1="391.8955" y1="150.9834" x2="391.8955" y2="302.247">
				<stop  offset="0" style="stop-color:#019733"/>
				<stop  offset="0.0409" style="stop-color:#038E32;stop-opacity:0.9591"/>
				<stop  offset="0.2465" style="stop-color:#0F662B;stop-opacity:0.7535"/>
				<stop  offset="0.4491" style="stop-color:#184726;stop-opacity:0.5509"/>
				<stop  offset="0.6453" style="stop-color:#1E3123;stop-opacity:0.3547"/>
				<stop  offset="0.8322" style="stop-color:#222421;stop-opacity:0.1678"/>
				<stop  offset="1" style="stop-color:#231F20;stop-opacity:0"/>
			</linearGradient>
			<polygon fill="url(#SVGID_6_)" points="429.518,293.78 384.414,177.205 354.273,177.205 354.273,261.334 395.476,369.859 
				395.476,369.881 			"/>
		</g>
		<linearGradient id="SVGID_7_" gradientUnits="userSpaceOnUse" x1="241.7549" y1="383.0225" x2="241.7549" y2="266.6068">
			<stop  offset="0" style="stop-color:#019733"/>
			<stop  offset="0.0409" style="stop-color:#038E32;stop-opacity:0.9591"/>
			<stop  offset="0.2465" style="stop-color:#0F662B;stop-opacity:0.7535"/>
			<stop  offset="0.4491" style="stop-color:#184726;stop-opacity:0.5509"/>
			<stop  offset="0.6453" style="stop-color:#1E3123;stop-opacity:0.3547"/>
			<stop  offset="0.8322" style="stop-color:#222421;stop-opacity:0.1678"/>
			<stop  offset="1" style="stop-color:#231F20;stop-opacity:0"/>
		</linearGradient>
		<path opacity="0.6" fill="url(#SVGID_7_)" d="M292.108,99.505v213.435h-61.871h-24.1v-17.012
			c7.773-9.033,14.402-21.205,14.402-34.615c0-6.073-0.972-11.905-2.76-17.295h0.021l-9.12-25.932
			c-0.509-2.477-1.352-4.819-2.455-7.004v-0.07l-12.546-24.736c-2.562-5.989-8.482-10.449-15.665-11.441
			c0.598-10.604,6.056-18.934,12.659-18.934l-6.694-2.143l6.694-6.475c-10.691,0-19.416,12.327-20.034,27.792
			c-6.65,1.301-12.106,5.544-14.493,11.222l-12.215,24.057c-0.108,0.22-0.222,0.42-0.33,0.638v0.021
			c-1.129,2.255-1.99,4.639-2.496,7.137l-9.033,25.781c-0.025,0.042-0.025,0.063-0.047,0.088c-1.767,5.39-2.762,11.222-2.762,17.295
			c0,13.41,6.938,25.582,14.734,34.615v76.012h62.135h24.104h124.01V99.505H292.108z M153.807,224.442
			c-1.437,4.311-5.213,6.94-8.439,5.856c-3.225-1.084-4.683-5.436-3.245-9.742c1.437-4.305,5.213-6.936,8.437-5.852
			C153.786,215.784,155.245,220.141,153.807,224.442z M204.192,230.299c-3.225,1.084-6.979-1.546-8.438-5.856
			c-1.435-4.302,0.024-8.658,3.247-9.737c3.226-1.084,7.007,1.547,8.44,5.852C208.876,224.863,207.42,229.215,204.192,230.299z"/>
		<g opacity="0.5">
			<linearGradient id="SVGID_8_" gradientUnits="userSpaceOnUse" x1="489.9883" y1="86.834" x2="489.9883" y2="139.4852">
				<stop  offset="0" style="stop-color:#019733"/>
				<stop  offset="0.1363" style="stop-color:#0B732D;stop-opacity:0.8637"/>
				<stop  offset="0.2826" style="stop-color:#145529;stop-opacity:0.7174"/>
				<stop  offset="0.4366" style="stop-color:#1A3D25;stop-opacity:0.5634"/>
				<stop  offset="0.5997" style="stop-color:#1F2C22;stop-opacity:0.4003"/>
				<stop  offset="0.778" style="stop-color:#222221;stop-opacity:0.222"/>
				<stop  offset="1" style="stop-color:#231F20;stop-opacity:0"/>
			</linearGradient>
			<polygon fill="url(#SVGID_8_)" points="516.438,99.5 510.332,113.17 510.311,113.17 509.464,115.078 481.667,177.205 
				429.518,293.78 395.476,369.881 463.534,369.881 463.534,369.859 549.746,177.205 557.352,160.211 577.531,115.078 584.501,99.5 
							"/>
		</g>
		<polygon fill="#019733" points="354.273,99.301 360.351,115.004 354.247,115.004 		"/>
		<polygon fill="#019733" points="354.273,99.301 360.351,115.004 354.247,115.004 		"/>
		<g>
			<polygon fill="#019733" points="589.534,115.078 577.457,115.078 584.426,99.5 			"/>
			<polygon fill="#019733" points="627.317,230.249 574.271,177.205 609.911,177.205 			"/>
			<polygon opacity="0.6" fill="#019733" points="627.317,230.249 574.271,177.205 609.911,177.205 			"/>
			<polygon fill="#019733" points="589.534,115.078 577.457,115.078 584.426,99.5 			"/>
		</g>
	</g>
	<g>
		<path fill="#666666" d="M110.289,479.004v25.736h31.121v-82.114h17.875v99.092H91.243v-42.714H110.289z"/>
		<path fill="#666666" d="M192.129,439.6v24.498h48.996v16.148h-48.996v24.494h48.996v16.978h-68.042v-99.092h68.042V439.6H192.129z
			"/>
		<path fill="#666666" d="M254.926,521.718v-99.092h60.864l7.174,8.694v81.703l-7.106,8.694H254.926z M305.094,439.6h-31.121v65.141
			h31.121V439.6z"/>
		<path fill="#666666" d="M355.813,521.718h-19.047v-99.092h19.047V521.718z"/>
		<path fill="#666666" d="M369.613,464.098h35.953v16.148h-35.953V464.098z"/>
		<path fill="#666666" d="M469.536,422.626h17.87l-21.6,99.092h-23.183l-23.256-99.092h19.045l14.905,76.249L469.536,422.626z"/>
		<path fill="#666666" d="M520.256,521.718H501.21v-99.092h19.046V521.718z"/>
		<path fill="#666666" d="M553.102,521.718h-19.046v-99.092h19.046l19.32,54.307l20.081-54.307h17.872v99.092h-17.872v-41.472
			l-13.87,41.472h-11.18l-14.352-41.472V521.718z"/>
	</g>
</g>
</svg>
